<?xml version="1.0" encoding="UTF-8" standalone="no"?>
<svg
   xmlns:dc="http://purl.org/dc/elements/1.1/"
   xmlns:cc="http://creativecommons.org/ns#"
   xmlns:rdf="http://www.w3.org/1999/02/22-rdf-syntax-ns#"
   xmlns:svg="http://www.w3.org/2000/svg"
   xmlns="http://www.w3.org/2000/svg"
   xmlns:sodipodi="http://sodipodi.sourceforge.net/DTD/sodipodi-0.dtd"
   xmlns:inkscape="http://www.inkscape.org/namespaces/inkscape"
   width="1280"
   height="640"
   viewBox="0 0 338.66666 169.33334"
   version="1.1"
   id="svg16"
   inkscape:version="1.0.1 (c497b03c, 2020-09-10)"
   sodipodi:docname="social-preview.svg"
   inkscape:export-filename="/Users/shogoichinose/Downloads/logo.png"
   inkscape:export-xdpi="96"
   inkscape:export-ydpi="96">
  <title
     id="title92">social media preview for actions-setup-perl</title>
  <defs
     id="defs10" />
  <sodipodi:namedview
     id="base"
     pagecolor="#ffffff"
     bordercolor="#666666"
     borderopacity="1.0"
     inkscape:pageopacity="1"
     inkscape:pageshadow="2"
     inkscape:zoom="0.72342549"
     inkscape:cx="680.79743"
     inkscape:cy="277.77547"
     inkscape:document-units="mm"
     inkscape:current-layer="layer1"
     inkscape:document-rotation="0"
     showgrid="false"
     units="px"
     showguides="true"
     inkscape:guide-bbox="true"
     inkscape:window-width="1440"
     inkscape:window-height="781"
     inkscape:window-x="0"
     inkscape:window-y="25"
     inkscape:window-maximized="0"
     inkscape:pagecheckerboard="true">
    <sodipodi:guide
       position="21.167,148.16667"
       orientation="-1,0"
       id="guide18"
       inkscape:label=""
       inkscape:locked="true"
       inkscape:color="rgb(0,0,255)" />
    <sodipodi:guide
       position="317.5,148.1664"
       orientation="0,1"
       id="guide20"
       inkscape:label=""
       inkscape:locked="true"
       inkscape:color="rgb(0,0,255)" />
    <sodipodi:guide
       position="21.166667,21.166334"
       orientation="0,1"
       id="guide22"
       inkscape:label=""
       inkscape:locked="true"
       inkscape:color="rgb(0,0,255)" />
    <sodipodi:guide
       position="317.5,21.166667"
       orientation="-1,0"
       id="guide38"
       inkscape:label=""
       inkscape:locked="true"
       inkscape:color="rgb(0,0,255)" />
  </sodipodi:namedview>
  <metadata
     id="metadata13">
    <rdf:RDF>
      <cc:Work
         rdf:about="">
        <dc:format>image/svg+xml</dc:format>
        <dc:type
           rdf:resource="http://purl.org/dc/dcmitype/StillImage" />
        <dc:title>social media preview for actions-setup-perl</dc:title>
        <cc:license
           rdf:resource="http://creativecommons.org/licenses/by-sa/4.0/" />
        <dc:source>https://github.com/shogo82148/actions-setup-perl</dc:source>
        <dc:creator>
          <cc:Agent>
            <dc:title>Ichinose Shogo</dc:title>
          </cc:Agent>
        </dc:creator>
        <dc:contributor>
          <cc:Agent>
            <dc:title />
          </cc:Agent>
        </dc:contributor>
        <dc:description>social media preview for actions-setup-perl. The Raptor is license by Sebastian Riedel. https://github.com/kraih/perl-raptor</dc:description>
      </cc:Work>
      <cc:License
         rdf:about="http://creativecommons.org/licenses/by-sa/4.0/">
        <cc:permits
           rdf:resource="http://creativecommons.org/ns#Reproduction" />
        <cc:permits
           rdf:resource="http://creativecommons.org/ns#Distribution" />
        <cc:requires
           rdf:resource="http://creativecommons.org/ns#Notice" />
        <cc:requires
           rdf:resource="http://creativecommons.org/ns#Attribution" />
        <cc:permits
           rdf:resource="http://creativecommons.org/ns#DerivativeWorks" />
        <cc:requires
           rdf:resource="http://creativecommons.org/ns#ShareAlike" />
      </cc:License>
    </rdf:RDF>
  </metadata>
  <g
     inkscape:label="レイヤー 1"
     inkscape:groupmode="layer"
     id="layer1">
    <rect
       style="opacity:1;fill:#ffffff;stroke-width:0.264583"
       id="rect29"
       width="338.44998"
       height="169.02475"
       x="0"
       y="0.39434487" />
    <path
       d="m 275.18329,93.656633 c -3.20648,3.206502 -2.80567,3.607308 -4.40892,7.214617 -1.60326,3.2065 -2.00406,3.2065 -1.60326,6.01217 0,1.60324 0.80164,1.20243 2.40487,2.80568 0.80164,0.40081 1.20244,0.80162 1.60326,1.20244 0.80161,1.20243 0.4008,1.20243 1.20244,2.00406 0.80161,1.60323 1.20243,0.80162 2.00404,2.40487 0.80163,2.00406 0.80163,2.40487 0.40083,4.80973 0,1.60324 -1.20244,2.40487 -1.20244,4.00811 -0.40082,4.00812 -0.80163,7.21461 -0.80163,7.61543 0,3.20648 0,3.20648 -0.4008,6.41298 0,3.20649 -0.40083,3.20649 -1.20244,6.01217 -0.40082,1.20244 -0.80162,0.80163 -1.20243,2.00407 -0.40083,1.20243 0,0.80161 -0.40083,2.00404 -0.4008,0.80163 -0.80161,1.20244 -1.20243,1.60326 0,0 -0.4008,0 -0.80161,0 -0.80163,0.4008 -0.80163,0 -1.60326,0.4008 -0.80162,0.40081 -1.20243,0 -1.60324,0.80163 -0.80163,0.80162 -0.80163,2.80568 -0.80163,2.80568 0,0 -0.40081,-1.20244 -0.80162,-2.00406 0,-0.40081 -0.40081,-0.80162 0,-2.00405 0,-1.20243 0.40081,-1.20243 0.80162,-2.40487 0.40082,-0.80163 1.20244,-1.60326 1.20244,-1.60326 -1.60325,0.80163 -1.60325,1.20244 -3.60731,2.00406 -1.20243,0.40081 -1.20243,0.40081 -2.40487,0 -0.80161,-0.4008 -0.80161,-0.80162 -0.80161,-0.80162 0,0 -1.20243,-0.40081 -2.00406,-0.40081 -1.20243,0.40081 -2.80568,2.40487 -2.80568,2.40487 0,0 0,-2.00406 0.80161,-3.2065 0.40083,-1.60324 0.40083,-1.60324 1.60326,-2.40487 1.20244,-0.80161 1.60324,0 2.80567,-0.80161 2.00407,-1.20244 3.60731,-3.2065 3.60731,-3.2065 0,0 -1.20244,-0.40081 -2.00406,-0.80162 -1.20244,-0.80162 -1.20244,-0.80162 -2.00405,-2.00405 -0.40082,-0.80163 -0.40082,-1.20243 -0.40082,-2.00407 0.40082,-0.80162 1.20243,-1.60323 1.20243,-1.60323 0,0 0.80163,-0.80164 0.80163,-1.60326 0.40081,-0.80161 0.40081,-1.20244 0,-2.00405 -0.4008,-0.40082 -0.80163,-0.40082 -2.00406,-0.40082 -0.80161,0 -0.80161,-0.4008 -1.60324,0 -1.20243,0.80163 -2.40487,2.00407 -2.40487,2.00407 0,0 0,-1.60325 0.80163,-2.40487 1.20243,-2.00407 1.20243,-2.00407 3.20648,-2.80569 1.60326,-0.80162 2.00406,-0.80162 3.6073,-0.80162 1.60325,0.40081 2.00406,0.80162 3.2065,2.00406 0.80162,0.40081 1.20243,4.40892 1.20243,4.40892 0,0 0.40081,-4.40892 1.20244,-6.41298 0.4008,-1.60325 0,-3.60731 0,-3.60731 0,0 -1.60325,0.80164 -3.2065,0.40081 -2.40487,-0.40081 -2.80568,-0.40081 -5.21055,-2.00404 -2.00406,-2.00406 -2.00406,-2.00406 -3.20649,-4.80974 -0.80161,-1.60325 -0.4008,-2.40487 -1.20244,-4.00812 -0.4008,-1.60325 -1.60323,-1.60325 -2.40486,-2.80569 -1.20243,-2.00406 -2.40487,-4.0081 -2.40487,-4.0081 0,0 0,2.40487 0,4.80974 0,2.00405 0,1.60323 0,4.00811 -0.40081,2.00406 -0.80162,2.40487 -0.80162,4.40893 0,2.40487 0.40081,2.00404 1.20243,4.0081 0.80163,2.40487 1.60325,1.20244 2.00406,4.00812 0,1.20243 -0.80162,3.6073 -0.80162,3.6073 0,0 -0.40081,2.00407 -0.80162,4.40893 -0.40082,3.2065 0,3.6073 -0.40082,6.8138 -0.80162,2.80568 -1.60325,5.61135 -1.60325,5.61135 0,0 -0.40081,2.40487 -2.00404,4.00813 -2.00407,2.00405 -2.00407,2.40486 -5.21057,3.20648 -1.20243,0.40082 -1.20243,0 -2.00404,0 -0.80163,0.40082 -0.80163,0.40082 -1.20244,0.40082 -0.40081,0.40081 -0.80162,0 -1.60325,0.40081 -0.80162,0.40081 -0.80162,0.40081 -1.60324,1.20243 -0.80163,0.4008 -2.00406,2.00406 -2.00406,2.00406 0,0 0,-1.20243 0.40082,-2.80568 0.4008,-1.60325 2.40486,-2.80568 2.40486,-2.80568 0,0 -0.80162,0 -1.60325,0 -0.80161,0.40081 -0.80161,0.40081 -1.60325,0.40081 -1.20243,0.40081 -1.20243,0 -2.40486,0 -1.20243,0.40081 -2.40487,2.00406 -2.40487,2.00406 0,0 0,-1.60325 0.80163,-2.80568 0.80161,-1.20243 1.20243,-1.20243 2.40487,-2.00406 1.20243,-0.4008 1.60323,0.40081 2.40487,-0.4008 2.80567,-1.60326 2.80567,-2.00407 5.21054,-4.00813 1.60324,-1.60324 0.40081,-1.20244 0,-2.40488 -0.40081,-0.80161 -0.40081,-0.80161 -0.40081,-1.60323 0,-0.40081 1.20244,-1.20244 0.40081,-1.20244 -1.60324,0.40081 -2.40487,0.40081 -2.80568,1.60324 -0.80162,1.20243 0.40081,3.60731 0.40081,3.60731 0,0 -2.40487,-0.80162 -2.80567,-2.00405 -0.40082,-1.60326 -0.80164,-2.80569 -0.40082,-4.00812 0.80162,-1.60325 1.60326,-3.20648 3.20649,-4.00812 2.00406,-0.80162 3.60731,1.60325 4.80974,0.80164 1.60324,-1.20244 1.20244,-1.20244 1.60324,-3.20651 0.40082,-4.00811 1.20243,-4.00811 0.40082,-8.01623 -1.20243,-3.6073 -2.00406,-3.6073 -4.00812,-7.21461 -1.20243,-2.80567 -1.20243,-2.80567 -2.00405,-5.61135 -0.80163,-2.80569 0.80162,-3.6073 -0.40082,-5.61137 -0.80162,-1.20242 -2.00404,-1.60323 -3.6073,-1.20242 -1.20244,0.4008 -1.60325,1.20242 -2.00405,2.40486 0,2.00407 0.80161,2.00407 1.20243,4.00812 0.80162,2.40487 0.4008,2.40487 0.80162,4.80973 0,1.60326 0.40082,1.60326 0.40082,2.80569 -0.40082,1.20244 -0.40082,1.20244 -0.80164,2.00405 -0.80162,2.00406 0,2.00406 -0.80162,3.6073 -0.80161,1.60325 -2.00405,2.40487 -2.00405,2.40487 0,0 0.40081,-2.80568 0,-6.01217 0,-0.80161 -0.40082,-0.40081 -0.80162,-1.60325 -0.40081,-1.60323 0,-2.00406 -0.40081,-3.60729 -0.40083,-3.60731 -0.80163,-7.21462 -0.80163,-7.21462 0,0 -0.80163,5.21056 -1.20243,10.82191 0,1.20244 0.4008,1.20244 0.4008,2.40487 0,0.80164 -0.4008,0.80164 -0.80161,2.00406 0,2.00406 0,2.00406 0,4.40892 0.40081,2.00407 0.80161,4.00813 0.80161,4.00813 0,0 -1.20244,-0.80162 -2.00405,-2.00406 -0.80162,-1.60325 -1.20243,-1.60325 -2.00406,-3.60731 -0.40081,-1.20243 -0.40081,-1.20243 -0.40081,-2.80568 0,-2.00406 0.40081,-2.00406 0.40081,-4.00812 0.40081,-4.40891 0.40081,-8.81785 0.40081,-8.81785 l -3.20648,6.01218 c 0,0 0,1.20244 -0.40082,2.00406 -0.80161,1.20244 -1.60325,0.80161 -2.00405,1.60324 -0.80162,0.80163 -0.40082,1.20243 0,2.40487 0.80161,1.20243 2.40487,2.40487 2.40487,2.40487 0,0 -2.40487,-0.40081 -4.00813,-1.60325 -1.20244,-1.20242 -1.20244,-1.60325 -1.60324,-3.60729 -0.40081,-0.80164 -0.40081,-1.20244 0.4008,-2.40487 2.8057,-5.61137 3.2065,-5.21056 6.81381,-10.82191 2.40487,-3.60731 3.6073,-7.214617 4.80974,-7.615434 0.80162,-0.801612 9.61947,0.400817 9.61947,-0.801612 -0.40081,-1.202439 -12.42515,-9.619483 -13.22678,-10.0203 -1.20243,-0.400817 -1.60323,2.404868 -2.80567,4.809736 -0.80163,1.603246 0,2.004062 -1.20243,2.805685 -1.60326,0.801623 -2.40487,1.20244 -4.40894,0.400806 -6.01217,-2.805674 -5.21055,-4.809736 -11.22271,-7.61541 -1.60326,-0.400817 -2.8057,0 -3.60731,0.801622 -2.00406,2.004052 -2.80569,5.210543 -2.00406,5.210543 0.40081,0.400816 0.80162,-0.400806 1.60324,0 0.80163,0 1.60326,-0.400806 2.40487,-0.400806 2.00407,-0.400817 3.20649,0.801622 3.20649,0.801622 0,0 -1.60323,0 -2.80567,0.801623 -1.20243,0.400806 -1.60326,0.801623 -2.00406,1.603246 -0.40081,0.801633 -1.20243,0.400806 -1.60325,0.801633 0,0 -0.40081,0.400806 0,0.801612 0.40082,0.400817 0.80162,-0.400806 1.60325,-0.400806 0.4008,0 1.60324,-0.400806 2.80567,-0.801633 1.60326,-0.801612 1.60326,-0.801612 3.2065,-2.004052 0.80163,-0.801623 2.00407,-1.603245 2.00407,-1.603245 0,0 0,1.603245 -0.80164,2.805685 -1.20243,2.004051 -1.60323,2.404868 -2.80567,3.206475 -2.00406,1.60327 -3.20649,1.20244 -3.20649,1.60327 -0.40081,0.80161 -0.40081,0.40081 -0.80164,0.80161 0,0.40082 0,0.80163 0.40083,0.80163 0.40081,-0.40081 1.60324,-0.40081 2.00404,-0.40081 0.40083,0.40081 1.20244,0 2.00406,-0.40082 2.00407,-1.20244 3.20651,-3.206487 3.20651,-3.206487 0,0 -0.40083,3.206487 -2.00407,4.408917 -1.60324,1.20244 -2.00406,1.20244 -2.40486,1.20244 -0.40081,0.40082 -0.40081,0.40082 -0.80164,0.80162 -0.80161,0.40081 -0.80161,0.40081 -2.00404,0.40081 -0.80163,-0.40081 -2.80569,-1.60323 -4.80975,-2.80567 -2.40486,-1.60324 -2.00406,-2.00407 -3.20649,-3.607311 -2.00406,-2.404868 -3.2065,-3.206491 -2.80567,-5.611359 0.4008,-2.404868 1.60323,-5.611359 5.21054,-9.218667 2.40487,-2.004062 4.00811,-3.206491 7.21461,-2.404868 6.41298,1.202429 11.22271,6.813798 12.02434,6.813798 0.4008,-0.400816 3.2065,-8.417043 3.2065,-12.825972 0,-4.408927 -0.40082,-6.813796 -2.00406,-12.024345 -1.60325,-6.412983 -3.20651,-12.425155 -4.00812,-12.825968 -0.80162,-0.400811 -3.60729,-0.400811 -7.61542,-1.202435 -5.61136,-0.40081 -6.41298,-0.801621 -12.02435,-1.202434 -6.41297,-0.400811 -10.82191,0.400813 -12.82595,0 -1.60326,-0.400811 -1.60326,-0.801621 -2.00407,-1.202434 -0.4008,-0.400811 -0.80163,-1.603245 -0.4008,-1.603245 0.4008,0 0.80161,-0.400812 0.80161,-0.400812 l -0.80161,-4.809737 2.40487,4.408925 h 0.4008 l -1.20244,-6.012173 2.40487,5.611362 h 0.80163 l -0.80163,-6.412983 2.40488,6.012172 1.20243,-0.400812 -0.80162,-4.408926 2.00406,4.008114 h 1.20243 l -0.40081,-4.408927 1.60325,4.008116 h 1.20243 l -1.20243,-5.21055 2.40486,4.809738 0.80163,-0.400811 -0.40082,-3.206493 2.00406,2.40487 0.80163,-0.400812 -0.80163,-3.607303 2.40487,2.80568 h 0.40081 l -0.40081,-3.20649 1.20243,2.805679 0.80163,-0.400811 v -1.603247 l 0.80162,1.603247 h 0.40081 v -3.206492 l 1.20244,2.805679 h 0.80161 v -2.004055 l 1.20244,1.603245 h 0.80163 l 0.80163,-2.004058 0.80161,1.603247 c 0,0 0.80162,0 2.80569,-0.400813 2.40486,-0.801621 4.80973,-2.004057 4.80973,-2.004057 l -8.41703,-1.603246 -1.20244,2.004058 -0.40082,-2.404869 -0.80161,-0.400811 -1.20244,2.004056 -0.40082,-2.004056 -0.80162,-0.400813 -1.20243,2.404869 -0.40082,-2.80568 h -0.80162 l -0.80162,2.40487 -0.80163,-2.805681 H 195.021 l -0.40082,3.607303 -0.80161,-4.008115 h -0.40083 l -0.80161,3.607303 -0.80163,-3.607303 h -0.4008 l -0.40083,4.809738 -0.80161,-4.809738 h -0.40082 l -0.4008,3.607303 -0.40081,-3.607303 h -0.80163 l -0.80163,4.809738 -0.4008,-4.809738 h -0.40081 l -0.80163,2.404869 -0.40081,-2.80568 h -0.80162 l -0.80163,4.008114 v -4.408925 h -0.80162 l -0.40082,3.607303 -0.40081,-3.607303 -0.4008,-0.400812 -0.80163,5.611361 -0.4008,-5.611361 h -0.40083 l -1.20243,4.809737 -0.40081,-5.210549 c 0,0 0,0.400812 -1.60324,-1.202434 -2.00406,-1.202435 -0.40082,-3.206491 0.40081,-4.809738 1.20243,-2.004056 2.00406,-1.603246 4.40893,-2.004056 9.21865,-0.801624 8.81785,0 18.03651,-0.400812 3.60731,-0.400812 4.00812,-1.603246 7.21462,-0.801623 2.80567,0.400811 3.20648,0.801623 5.61135,2.004057 3.20649,1.202434 3.60729,0.801623 6.41299,2.004057 3.20648,1.202435 3.60731,1.202435 6.41298,3.206491 2.40487,1.603248 2.80567,1.603248 4.40893,4.408927 2.00404,3.607304 2.00404,3.607304 2.80567,8.016231 1.60325,7.615417 1.60325,14.028401 1.60325,16.032459 0,2.004058 0.40082,1.603245 2.00406,2.404869 2.40487,1.202434 2.40487,0.801623 5.21054,1.202434 4.00813,0.400811 4.40893,0 8.41704,0.801624 3.2065,0.801621 3.60731,0.40081 6.413,1.603245 2.80567,1.202434 5.21054,3.607304 5.21054,3.607304 0,0 2.80568,0.801623 5.61136,2.404868 1.60325,0.801623 1.60325,1.202435 3.20649,2.004059 2.00407,0.40081 4.40893,0.40081 4.40893,0.40081 0,0 5.61136,0 11.62354,-0.801624 6.01217,-0.801622 6.01217,-0.40081 12.42515,-1.603245 4.00811,-1.202434 7.61542,-2.80568 7.61542,-2.80568 0,0 3.60729,-2.004058 2.80568,-4.008116 -0.80162,-2.004056 -3.6073,-2.004056 -5.21055,-4.008114 -1.20244,-1.202434 -1.60325,-2.404868 -1.60325,-3.607304 -0.4008,-1.202434 0,-2.805679 1.60325,-4.408927 1.20243,-2.004055 2.80568,-3.206491 6.41299,-3.206491 5.21054,-0.801622 8.01622,-0.801622 11.22272,1.202436 3.20648,2.004055 2.80567,4.008114 2.80567,4.008114 0,0 -2.40487,-2.404869 -5.61137,-2.80568 -4.00811,-0.400813 -5.61135,-0.801624 -8.41702,0.801621 -2.40487,1.202435 -2.80569,2.40487 -2.00406,4.809739 0.80162,2.004058 3.6073,2.004058 4.80973,2.404869 1.20243,0.801623 3.6073,1.603247 4.40891,4.809737 0.80164,3.206492 -1.60323,7.214607 -1.60323,7.214607 0,0 -2.40487,4.008116 -13.22678,9.218662 -11.22272,4.809737 -9.61947,3.607308 -18.43732,8.417044 -4.80974,2.805685 -5.21055,2.805685 -9.21867,6.412982 v 0 M 206.24371,26.320306 c 0.80164,0 1.60325,-0.400812 1.60325,-1.202435 0,-0.801623 -0.80161,-1.202434 -1.60325,-1.202434 -1.20242,0 -2.40486,0.400811 -2.40486,1.202434 0,0.801623 1.20244,1.202435 2.40486,1.202435 v 0"
       fill="#000000"
       id="path42"
       style="stroke-width:0.400811" />
    <text
       xml:space="preserve"
       style="font-style:normal;font-variant:normal;font-weight:normal;font-stretch:normal;font-size:10.5833px;line-height:1.25;font-family:'Noto Sans Armenian';-inkscape-font-specification:'Noto Sans Armenian';fill:#000000;fill-opacity:1;stroke:none;stroke-width:0.264583"
       x="43.876736"
       y="67.16333"
       id="text58"><tspan
         sodipodi:role="line"
         x="43.876736"
         y="67.16333"
         style="font-style:normal;font-variant:normal;font-weight:normal;font-stretch:normal;font-size:25.4px;font-family:'Hiragino Mincho ProN';-inkscape-font-specification:'Hiragino Mincho ProN';stroke-width:0.264583"
         id="tspan60">Setup</tspan><tspan
         sodipodi:role="line"
         x="43.876736"
         y="98.91333"
         style="font-style:normal;font-variant:normal;font-weight:normal;font-stretch:normal;font-size:25.4px;font-family:'Hiragino Mincho ProN';-inkscape-font-specification:'Hiragino Mincho ProN';stroke-width:0.264583"
         id="tspan64">Perl</tspan><tspan
         sodipodi:role="line"
         x="43.876736"
         y="130.66333"
         style="font-style:normal;font-variant:normal;font-weight:normal;font-stretch:normal;font-size:25.4px;font-family:'Hiragino Mincho ProN';-inkscape-font-specification:'Hiragino Mincho ProN';stroke-width:0.264583"
         id="tspan66">Environment</tspan></text>
    <text
       xml:space="preserve"
       style="font-style:normal;font-weight:normal;font-size:5.64444px;line-height:1.25;font-family:sans-serif;fill:#000000;fill-opacity:1;stroke:none;stroke-width:0.264583"
       x="37.068417"
       y="146.58963"
       id="text70"><tspan
         sodipodi:role="line"
         id="tspan68"
         x="37.068417"
         y="146.58963"
         style="font-size:5.64444px;stroke-width:0.264583">https://github.com/marketplace/actions/setup-perl-environment</tspan></text>
  </g>
</svg>
